<svg width="512" height="532" viewBox="0 0 512 532" fill="none" xmlns="http://www.w3.org/2000/svg">
<rect y="20" width="512" height="512" rx="112" fill="#E75C3A"/>
<path d="M235.4 395C218.333 395 203.4 390.733 190.6 382.2C177.8 373.667 167.8 361.133 160.6 344.6C153.4 328.067 149.8 307.933 149.8 284.2C149.8 247.4 157.667 219.4 173.4 200.2C189.133 181 210.333 171.4 237 171.4C247.4 171.4 256.6 172.867 264.6 175.8C272.867 178.467 280.067 182.333 286.2 187.4C292.6 192.2 298.067 197.8 302.6 204.2H304.2L309.4 175.4H343.8V337.4C343.8 345.933 345.4 351.8 348.6 355C352.067 358.2 355.933 359.8 360.2 359.8C362.333 359.8 364.6 359.533 367 359C369.4 358.467 371.133 358.067 372.2 357.8V389.8C370.867 390.6 368.867 391.4 366.2 392.2C363.533 393 360.6 393.667 357.4 394.2C354.467 394.733 351.533 395 348.6 395C337.667 395 328.6 392.6 321.4 387.8C314.467 383 309.267 374.467 305.8 362.2H303C298.733 368.333 293.4 373.933 287 379C280.6 384.067 273 388.067 264.2 391C255.667 393.667 246.067 395 235.4 395ZM247 360.6C260.6 360.6 271.4 357.933 279.4 352.6C287.667 347.267 293.667 339.133 297.4 328.2C301.133 317 303 303 303 286.2V283.8C303 258.467 298.867 239.267 290.6 226.2C282.333 212.867 267.667 206.2 246.6 206.2C228.467 206.2 215 212.867 206.2 226.2C197.667 239.533 193.4 259 193.4 284.6C193.4 309.667 197.933 328.6 207 341.4C216.067 354.2 229.4 360.6 247 360.6Z" fill="white"/>
</svg>
